<svg width="76" height="76" viewBox="0 0 76 76" fill="none" xmlns="http://www.w3.org/2000/svg">
<path fill-rule="evenodd" clip-rule="evenodd" d="M52.1959 7.44382C51.6734 7.69804 51.0574 8.11984 50.8273 8.38128C50.5689 8.67464 49.8414 9.03944 48.9273 9.33394C47.2783 9.86499 47.2164 9.90508 46.0452 11.2054L45.2147 12.1277L45.3483 14.1903C45.4218 15.3246 45.5854 17.0679 45.7117 18.0641C45.8381 19.0602 45.8721 19.9992 45.7876 20.1504C45.3428 20.945 45.562 22.2228 46.7839 25.9561C47.1324 27.0205 47.5637 27.357 47.9885 26.896C48.157 26.7132 48.1293 26.6872 47.8654 26.7803C47.4514 26.9262 47.083 26.1429 46.3353 23.525C45.8383 21.7852 45.6943 20.6353 45.9734 20.6368C46.2219 20.638 46.851 22.3949 47.0615 23.6757C47.2316 24.7103 47.3252 24.9103 47.6401 24.9107C47.9264 24.9109 48.0522 25.0922 48.1679 25.6711C48.2517 26.0891 48.4867 27.1668 48.6904 28.0658C48.8942 28.9651 49.0609 29.83 49.0609 29.9879C49.0609 30.1456 49.2319 30.4921 49.4409 30.758C49.7576 31.1606 49.8209 31.5288 49.8209 32.9686C49.8209 34.5331 49.7871 34.6961 49.4635 34.6961C49.1984 34.6961 49.0504 34.9171 48.8906 35.5511C48.7723 36.0213 48.5893 36.4061 48.4838 36.4061C48.3786 36.4061 47.9309 36.7312 47.4892 37.1287C46.2198 38.2707 44.7179 39.2654 43.2596 39.93C42.0951 40.4607 41.1447 41.1185 39.6844 42.4046C39.4294 42.629 39.2757 42.6569 39.1246 42.5058C38.9736 42.3548 39.0125 42.2271 39.2666 42.0413C39.5516 41.8331 39.5979 41.6161 39.5149 40.8789C39.3802 39.6849 38.9162 39.0857 37.6204 38.4324C36.6461 37.9413 36.2661 37.8752 33.3106 37.6827L30.0696 37.4716L30.1127 36.9016C30.1536 36.3618 30.0852 36.3037 28.8259 35.8064C28.0944 35.5175 27.2152 35.2777 26.8725 35.2737C25.8896 35.2617 25.8917 34.7981 26.8789 33.779C27.3728 33.2692 28.0467 32.2439 28.4615 31.3711C29.0734 30.0835 29.2053 29.5752 29.3241 28.0461C29.401 27.0533 29.5585 25.9245 29.6738 25.5377C30.0261 24.3569 30.7909 22.7561 31.1965 22.3505C31.408 22.139 31.5809 21.8435 31.5809 21.6938C31.5809 21.5441 31.7618 21.3644 31.9827 21.2941C32.3454 21.1791 32.3722 21.074 32.2584 20.2156C32.1011 19.0298 31.7238 17.898 30.8879 16.1048C30.5074 15.2882 30.2839 14.5616 30.3495 14.3545C30.4945 13.8979 30.2041 13.3693 29.3258 12.491C28.9374 12.1026 28.5027 11.4893 28.36 11.1279C28.0664 10.3856 27.2529 9.42609 26.9168 9.42609C26.7942 9.42609 26.3775 9.21139 25.9909 8.949C23.9833 7.5867 17.092 6.85368 15.2494 7.80672C14.5512 8.16772 14.1816 8.84374 13.9996 10.0936C13.7741 11.6411 13.476 12.0545 12.5357 12.1226C11.8906 12.1693 11.6829 12.2772 11.5003 12.6599C11.1445 13.4062 10.8295 17.0723 10.9009 19.6354C10.9596 21.7328 11.0044 21.9864 11.3605 22.2357C11.7295 22.4937 11.7496 22.6489 11.6689 24.6103C11.5653 27.1225 11.7133 27.4554 13.2337 28.1276C14.2268 28.5669 14.2523 28.5978 14.3581 29.499C14.6526 32.008 14.9129 35.6163 14.8174 35.8652C14.7005 36.1701 13.1286 36.6867 10.3009 37.3498C7.74785 37.9485 7.02357 38.1773 4.98088 39.03C2.55306 40.0436 1.94468 40.3731 1.43339 40.9509L1 41.4411L1.04294 48.2653C1.07334 53.0993 1.14801 55.1103 1.29868 55.1604C1.41572 55.1994 1.71497 55.0609 1.96368 54.8524C3.8405 53.28 4.8342 52.5361 4.92996 52.6317C4.99152 52.6933 4.89994 52.9006 4.72647 53.0925C4.34476 53.5141 4.32158 53.9554 4.66605 54.2414C4.96796 54.4918 7.10945 54.8123 7.71175 54.6972C7.9426 54.6531 9.04593 54.8372 10.1635 55.1065C12.606 55.6949 12.682 55.6974 13.6259 55.2161C14.5155 54.7626 14.8609 54.736 14.8609 55.1211C14.8609 55.7257 15.5815 56.1661 16.5709 56.1661C17.3546 56.1661 17.5209 56.2252 17.5209 56.5037C17.5209 57.1491 18.0614 57.6483 18.8972 57.7744C20.7376 58.0522 20.7509 58.0585 20.7509 58.6467C20.7509 59.3473 21.1789 59.6235 23.077 60.1485C24.4791 60.5361 24.5798 60.5403 25.2208 60.2361C25.5907 60.0605 26.1562 59.6714 26.4773 59.3714C26.7984 59.0716 27.2097 58.8261 27.3916 58.8261C28.0691 58.8261 28.3875 58.1377 28.6841 56.0316C28.843 54.9037 28.9887 53.9608 29.0081 53.9359C29.0273 53.9108 29.7316 54.2281 30.5733 54.6406C31.9272 55.3041 32.1389 55.4794 32.4121 56.1621C32.5846 56.5932 32.7209 57.4706 32.7209 58.1503C32.7209 59.3636 32.7194 59.3672 32.0789 59.5785C31.1161 59.8962 30.7544 60.3721 31.0247 60.9655C31.1446 61.2288 31.4471 61.5372 31.6968 61.651C32.4655 62.0014 32.4887 61.9693 29.154 65.1567C28.1898 66.0784 27.4009 66.9448 27.4009 67.0822C27.4009 67.548 28.8369 68.632 30.1642 69.168C33.4786 70.506 37.2552 69.8052 39.1921 67.4927C39.5155 67.1067 41.8126 66.1962 42.0668 66.3533C42.1515 66.4056 42.2209 66.7882 42.2209 67.2034C42.2209 68.1543 42.6429 69.1836 43.1424 69.4509C43.625 69.7091 45.0709 69.7205 45.0709 69.4661C45.0709 69.3616 44.7779 69.2761 44.4197 69.2761C43.5642 69.2761 43.0728 68.6504 42.899 67.34C42.826 66.7903 42.6759 66.2315 42.5653 66.0983C42.2973 65.7753 40.9148 65.8016 40.3209 66.1411C39.2426 66.7574 38.8299 66.3233 39.2764 65.0417C39.7229 63.7602 39.6564 63.4868 38.8051 63.103C38.2411 62.8486 37.7827 62.7895 37.0001 62.8704L35.9511 62.9785L35.8279 62.2094C35.7297 61.595 35.572 61.3618 35.0432 61.0498L34.3817 60.6596L35.1954 60.4192C36.5537 60.0181 36.7002 59.3108 35.6288 58.3292C35.2426 57.9755 34.8151 57.6861 34.6788 57.6861C34.3228 57.6861 34.3735 57.0232 34.7921 56.206C35.0742 55.6552 35.3545 55.4296 36.0746 55.1737C36.5813 54.9938 37.5881 54.3953 38.3118 53.8437C39.892 52.6399 40.633 51.3616 40.827 49.5041C40.9165 48.6482 40.9931 48.4183 41.0961 48.6964C41.1751 48.9102 41.653 49.4173 42.1578 49.8231C42.6628 50.229 43.1443 50.6681 43.2279 50.7986C43.3115 50.9293 43.4576 51.0361 43.5526 51.0361C43.6476 51.0361 44.6052 51.7083 45.6806 52.5299C46.756 53.3516 48.1061 54.3088 48.6809 54.6575C49.8684 55.3774 51.7509 56.7982 55.0482 59.4635C56.301 60.476 57.5176 61.3544 57.752 61.4156C58.0823 61.5017 58.4197 61.306 59.2496 60.5475C60.7968 59.1333 61.6233 58.755 62.8205 58.9129C63.3513 58.983 64.4076 59.2486 65.1674 59.5032C65.9272 59.7578 66.6695 59.9661 66.8171 59.9661C67.2636 59.9661 67.3467 59.2521 67.0161 58.2565C66.8439 57.7385 66.7573 57.2272 66.8232 57.1203C66.8924 57.0085 67.7683 56.9261 68.8891 56.9261C70.1492 56.9261 70.9152 56.8457 71.0629 56.6981C71.1883 56.5727 71.2909 55.97 71.2909 55.3586C71.2909 54.7474 71.4077 54.0164 71.5504 53.7341C72.0127 52.8206 72.0828 51.8898 71.7556 51.0064C71.1765 49.4433 71.1662 49.4806 72.3705 48.7561C72.9785 48.3903 73.8017 47.7985 74.2002 47.4409L74.9244 46.7907L74.8178 44.969C74.7591 43.9671 74.7935 42.8602 74.8942 42.5093C75.0263 42.0487 75.0069 41.7031 74.8245 41.2665C74.4874 40.4597 73.8224 40.2635 66.4459 38.7944C65.1919 38.5447 64.0129 38.2795 63.8258 38.205C63.6388 38.1305 63.1473 37.3789 62.7333 36.5345C62.1399 35.324 61.9809 34.7831 61.9809 33.9764C61.9809 32.9829 62.0109 32.9249 63.0259 31.9652C64.0437 31.0027 64.0709 30.95 64.0722 29.9391C64.0751 27.7518 64.2918 26.3724 64.6475 26.2793C65.2517 26.1214 65.5926 25.2831 65.8434 23.3396C65.9794 22.2864 66.1822 21.3113 66.2943 21.1728C66.6524 20.7299 66.7305 19.4721 66.5785 16.595C66.4368 13.9175 66.4073 13.7661 65.934 13.2928C65.6612 13.0199 65.0235 12.6943 64.5168 12.5691C63.6316 12.3502 63.5719 12.2917 62.9786 11.0641C62.4889 10.0514 62.2271 9.73085 61.7149 9.51672C61.3594 9.36833 60.8677 8.97978 60.6222 8.65355C60.3767 8.32713 59.9621 7.82838 59.7009 7.54509L59.2259 7.02981L56.1859 7.00568C53.3268 6.98307 53.0893 7.0091 52.1959 7.44382ZM25.358 12.8364C26.3656 13.3327 26.8651 13.7429 27.6906 14.7518C28.6579 15.9343 28.7235 16.0744 28.5186 16.5241C28.3467 16.9016 28.3516 17.274 28.5405 18.164C28.6748 18.7973 28.7472 19.353 28.7014 19.3988C28.6556 19.4446 28.1947 19.3504 27.6769 19.1894C25.9096 18.6396 23.2309 19.1366 22.9347 20.0695C22.7548 20.6363 23.5524 23.8167 24.1344 24.8531C24.4099 25.3437 24.5913 25.7891 24.5376 25.8427C24.484 25.8962 23.9524 25.8269 23.3562 25.6882L22.2722 25.4362L21.2874 26.171C19.0616 27.8318 19.0473 28.9072 21.212 31.8476C22.0564 32.9946 22.6064 34.234 22.374 34.4662C22.3055 34.5348 22.0191 34.4457 21.7375 34.2682C21.4562 34.0906 20.4564 33.5711 19.5159 33.1136C17.6073 32.1854 15.8475 30.9371 15.4926 30.26C15.364 30.0141 15.1647 29.0521 15.0499 28.1221C14.7875 25.995 14.695 25.6261 14.3961 25.5113C14.1508 25.4172 13.5309 26.4892 13.5309 27.0075C13.5309 27.4464 13.2333 27.3332 12.9915 26.8022C12.7695 26.3154 12.6823 24.3979 12.8733 24.2069C13.0169 24.0635 14.2605 24.7213 14.7953 25.2236C15.0404 25.4539 15.2399 25.6061 15.2386 25.5616C15.2375 25.5174 15.1102 25.0108 14.9559 24.4361C14.6 23.1103 14.5998 22.2285 14.9547 20.4461C15.5329 17.5436 15.9235 16.3744 16.3503 16.2691C16.5694 16.2152 17.1599 15.6581 17.6624 15.0311C18.4236 14.0813 18.8765 13.7372 20.376 12.969C21.9712 12.1516 22.2838 12.0559 23.1259 12.126C23.6824 12.1722 24.6069 12.4665 25.358 12.8364ZM61.0569 14.1001C61.177 15.1861 61.518 15.6961 62.1245 15.6961C62.2682 15.6961 62.6797 16.3326 63.039 17.1104C63.3985 17.8883 63.7777 18.5772 63.8816 18.6417C63.9858 18.7059 64.0709 19.0486 64.0709 19.4032V20.0478L63.0814 19.5345C61.4622 18.6943 58.3329 18.7365 56.9035 19.6177C56.4426 19.9019 55.675 21.4318 55.3326 22.7483C55.2136 23.2064 54.9507 24.0331 54.7485 24.5858C54.1255 26.288 54.3111 27.2861 55.2507 27.2861C55.8311 27.2861 56.0474 26.9534 56.4029 25.513C56.7095 24.27 56.9018 24.0738 57.0937 24.8079C57.2516 25.4112 55.4297 28.6349 54.5044 29.3896C53.6042 30.1239 54.8196 33.3807 56.2702 34.1208C57.5011 34.7485 57.4433 34.9438 56.0525 34.8553L54.8224 34.777L52.779 33.0741C51.6551 32.1374 50.5214 31.1902 50.2598 30.9692C49.7359 30.5267 48.8464 27.8496 48.4362 25.4811C48.1489 23.8216 48.2349 17.6827 48.5534 17.1256C48.6742 16.9142 48.8593 16.366 48.9645 15.9077C49.15 15.1002 49.1912 15.063 50.2959 14.7083C50.9229 14.5069 52.2481 14.1316 53.2409 13.8746C54.2336 13.6175 55.3229 13.262 55.6615 13.0845C56.2423 12.78 56.3086 12.7805 56.8404 13.0946C57.528 13.501 58.2751 13.3589 58.677 12.7456L58.9614 12.3116L59.9486 12.6586L60.9359 13.0055L61.0569 14.1001ZM18.6442 19.7435C16.5342 20.6344 15.2779 21.36 15.1504 21.7618C14.9973 22.2441 16.0121 24.3198 16.4413 24.4025C17.12 24.5332 19.4325 23.6706 20.1391 23.0231C20.7896 22.4268 20.8356 22.3079 20.9074 21.0355C20.9832 19.6937 20.7957 19.1037 20.3002 19.1254C20.1822 19.1305 19.437 19.4087 18.6442 19.7435ZM49.6877 19.4017C49.2112 19.7355 48.9022 20.5825 48.8285 21.7578C48.7791 22.5425 48.8112 22.6045 49.3426 22.7508C49.6687 22.8407 50.2111 22.8256 50.6196 22.7156C51.0103 22.6104 51.8752 22.5802 52.5413 22.6486C53.6988 22.7671 53.7812 22.7472 54.39 22.2034C54.9585 21.6953 55.028 21.5249 55.0364 20.6213L55.0459 19.6086L54.2859 19.377C53.1535 19.0319 50.1929 19.0477 49.6877 19.4017ZM64.3072 22.1561C64.2546 22.5218 64.1258 22.9066 64.0211 23.0111C63.8938 23.138 63.8706 22.9881 63.9508 22.5598C64.0167 22.2072 64.077 21.6514 64.0842 21.3248C64.0954 20.8314 64.1233 20.7953 64.2504 21.1111C64.3344 21.3201 64.3601 21.7903 64.3072 22.1561ZM22.9581 29.5701C23.6233 29.704 24.092 29.7044 24.443 29.571C25.4969 29.1703 25.7762 29.5142 25.2803 30.6022C24.8862 31.467 23.2138 31.2246 21.6627 30.0778C20.9008 29.5144 20.8014 29.111 21.4607 29.2573C21.7495 29.3216 22.4233 29.4623 22.9581 29.5701ZM57.3587 30.4384C57.434 30.6345 57.2282 30.985 56.7728 31.4359C56.0943 32.1077 56.0616 32.1187 55.7958 31.7623C55.6446 31.5594 55.5209 31.1106 55.5209 30.7648C55.5209 30.1458 55.534 30.1361 56.3818 30.1361C56.9938 30.1361 57.2763 30.2235 57.3587 30.4384ZM18.1692 32.8892C18.8716 33.2553 19.8469 33.8899 20.3361 34.2994C21.0592 34.9043 21.4309 35.0687 22.3208 35.1772C22.9231 35.2505 23.4548 35.3734 23.5023 35.4504C23.5783 35.5731 22.2224 38.7693 21.8274 39.3986C21.7455 39.5293 21.3416 39.6361 20.9297 39.6361C19.8037 39.6361 16.7495 39.0699 16.1202 38.7446L15.5667 38.4583L15.6845 36.7984C15.7493 35.8855 15.729 34.8829 15.6393 34.5701C15.5496 34.2576 15.4132 33.2889 15.3361 32.4178L15.1958 30.8338L16.0438 31.5286C16.5103 31.9107 17.4665 32.5231 18.1692 32.8892ZM51.9054 32.8217C52.5476 33.3585 53.31 34.0345 53.5994 34.3239C54.1981 34.9226 55.2313 35.2634 56.4515 35.2649L57.2871 35.2661L57.1758 36.9852C57.0743 38.5518 57.0131 38.7625 56.4863 39.3627C55.7956 40.1491 55.4238 40.8424 55.2437 41.6786C55.1279 42.2159 55.0333 42.2961 54.5139 42.2961C54.0442 42.2961 53.6895 42.5212 52.8506 43.3513C51.5871 44.6015 51.5432 44.5791 50.9685 42.3867C50.75 41.553 50.3096 40.116 49.9898 39.1932C49.67 38.2702 49.4485 37.475 49.4975 37.426C49.5465 37.377 49.9377 37.8757 50.3667 38.5341C50.796 39.1924 51.2121 39.7925 51.2915 39.8675C52.2913 40.8112 52.7159 41.1561 52.8785 41.1561C53.0889 41.1561 53.0526 41.0831 52.2514 39.8935C51.9595 39.4603 51.7209 39.0264 51.7209 38.9291C51.7209 38.8318 51.499 38.5451 51.2278 38.2916C50.5117 37.6227 50.2309 36.9765 50.2831 36.118C50.3084 35.7018 50.343 34.5703 50.3601 33.6036C50.377 32.6369 50.469 31.8461 50.5643 31.8461C50.6595 31.8461 51.2632 32.2852 51.9054 32.8217ZM49.8209 35.5623C49.8209 35.9647 49.7439 36.191 49.6309 36.1211C49.3159 35.9263 49.4226 34.8861 49.7576 34.8861C49.7924 34.8861 49.8209 35.1905 49.8209 35.5623ZM62.583 37.8786C62.7502 38.1659 62.9529 38.7003 63.0333 39.0661C63.176 39.7144 63.1714 41.359 63.0264 41.5038C62.9865 41.5437 62.6282 41.2433 62.23 40.8365C61.8317 40.4295 61.2948 39.9629 61.0368 39.7995L60.5677 39.5025L60.9304 38.6669C61.1299 38.2071 61.3727 37.7243 61.4702 37.5936C61.765 37.1984 62.2611 37.3255 62.583 37.8786ZM34.3908 38.1275C36.5085 38.3587 37.951 38.7359 38.4524 39.1896C38.7045 39.4178 38.8009 39.7759 38.8009 40.4842C38.8009 41.7466 38.483 42.2083 37.738 42.0284C35.2289 41.4225 34.4282 41.3284 32.7209 41.439C31.7281 41.5032 30.6751 41.6497 30.3808 41.7643C29.6334 42.0554 29.307 41.6712 29.1694 40.3381C29.063 39.307 29.0826 39.2464 29.731 38.5979C30.3413 37.9876 30.5011 37.9261 31.4743 37.9261C32.0637 37.9261 33.3762 38.0167 34.3908 38.1275ZM30.6883 39.2895C30.5769 39.4278 30.4508 39.8574 30.4076 40.2443C30.3455 40.8033 30.3797 40.9057 30.5752 40.7436C30.7103 40.6313 30.8209 40.379 30.8209 40.1829C30.8209 39.6735 31.1965 39.7396 31.2229 40.2536C31.2387 40.5576 31.2695 40.5882 31.3297 40.3596C31.3764 40.1827 31.2966 39.813 31.1526 39.538C30.9449 39.1417 30.8486 39.0902 30.6883 39.2895ZM32.1537 39.5886C32.1554 39.8759 32.2331 40.2319 32.3266 40.3796C32.4404 40.5595 32.4866 40.3872 32.4663 39.8582C32.4328 38.9914 32.1492 38.7465 32.1537 39.5886ZM32.9109 39.9211C32.9109 40.4261 32.9622 40.7881 33.0249 40.7254C33.0876 40.6627 33.1389 40.3007 33.1389 39.9211C33.1389 39.5415 33.0876 39.1795 33.0249 39.1168C32.9622 39.0541 32.9109 39.4161 32.9109 39.9211ZM33.5911 39.5483C33.5246 39.8135 33.5554 40.1768 33.6597 40.3558C33.8075 40.6095 33.8506 40.5032 33.8552 39.8736C33.8616 38.9576 33.7682 38.8425 33.5911 39.5483ZM34.0509 39.9211C34.0509 40.3913 34.1337 40.7761 34.235 40.7761C34.3361 40.7761 34.3665 40.6393 34.3022 40.4719C34.238 40.3047 34.3049 40.0921 34.4506 39.9997C34.6708 39.8605 34.6718 39.8314 34.4561 39.8289C34.2905 39.8272 34.2325 39.6885 34.296 39.4461C34.3505 39.2371 34.3178 39.0661 34.223 39.0661C34.1284 39.0661 34.0509 39.4508 34.0509 39.9211ZM35.8078 39.6317C35.5179 40.0959 35.5038 40.3961 35.7721 40.3961C35.8827 40.3961 35.9146 40.3011 35.8428 40.1848C35.7709 40.0687 35.819 39.9076 35.9497 39.8268C36.0803 39.7461 36.1551 39.5838 36.116 39.4662C36.0759 39.3461 35.9406 39.4187 35.8078 39.6317ZM36.9159 39.7469C36.925 39.9682 36.97 40.0132 37.0306 39.8618C37.0856 39.7246 37.0787 39.5607 37.0156 39.4976C36.9526 39.4345 36.9077 39.5466 36.9159 39.7469ZM37.5976 39.7628C37.3428 40.0174 37.4815 40.5361 37.8984 40.8891L38.3259 41.2511L37.9858 40.8477C37.6571 40.4578 37.6586 40.4409 38.0333 40.3431C38.2594 40.284 38.4118 40.0957 38.3988 39.8914C38.3789 39.5732 38.3688 39.5715 38.29 39.8736C38.2421 40.0566 38.0718 40.2061 37.9117 40.2061C37.7306 40.2061 37.6616 40.0982 37.7297 39.9211C37.8471 39.615 37.8007 39.5595 37.5976 39.7628ZM36.1559 40.3169C36.165 40.5382 36.21 40.5832 36.2706 40.4318C36.3256 40.2946 36.3187 40.1307 36.2556 40.0676C36.1926 40.0045 36.1477 40.1166 36.1559 40.3169ZM59.1081 42.9544C58.6591 44.4492 58.2402 44.9067 58.4495 43.6736C58.5928 42.8296 59.3739 41.0301 59.4708 41.3208C59.5078 41.432 59.3446 42.1671 59.1081 42.9544ZM36.7947 42.3782C37.3782 42.6362 37.9035 42.9723 37.9622 43.1249C38.0283 43.2974 37.7302 43.7146 37.1752 44.2261C35.6906 45.5947 35.6273 45.6234 34.8787 45.2664C34.0657 44.8788 32.6097 44.8677 31.8887 45.2437C31.361 45.5191 31.3086 45.5042 30.4238 44.8294C29.9189 44.4444 29.4597 44.0087 29.4029 43.8611C29.2196 43.3833 30.8577 42.2824 32.2903 41.9208C33.4429 41.6298 35.5973 41.8484 36.7947 42.3782ZM55.0409 43.2366C55.3506 43.8355 55.4282 44.5761 55.181 44.5761C55.0987 44.5761 54.6959 44.4051 54.2859 44.1961C53.8759 43.9871 53.4303 43.8161 53.2958 43.8161C52.9019 43.8161 53.0123 43.494 53.5515 43.07C54.2443 42.5248 54.6993 42.576 55.0409 43.2366ZM39.1467 45.1134C39.1997 45.4742 39.118 45.5261 38.4959 45.5261H37.7846L38.2343 45.0475C38.7501 44.4982 39.0593 44.5206 39.1467 45.1134ZM29.4101 45.6388C30.0293 46.1187 30.5583 46.5331 30.5858 46.5595C30.6134 46.5861 30.499 46.9351 30.3318 47.3355C30.1259 47.8281 30.0666 48.3212 30.1477 48.8627C30.2621 49.6253 30.2305 49.6939 29.465 50.349C29.0237 50.727 28.5601 51.0361 28.435 51.0361C28.0837 51.0361 27.3691 49.1832 27.2612 47.9925C27.1512 46.7807 27.6363 44.7661 28.0379 44.7661C28.1736 44.7661 28.7911 45.1588 29.4101 45.6388ZM39.4412 46.1436C39.7482 47.2893 39.4651 50.6536 38.9983 51.4053C38.7819 51.7539 38.1798 51.5031 37.23 50.6692C36.5826 50.1011 36.5682 50.0587 36.7608 49.3001C36.9043 48.7346 36.8986 48.3487 36.7401 47.9106C36.6195 47.5771 36.5209 47.1755 36.5209 47.0182C36.5209 46.5859 37.3037 45.9469 37.9459 45.8548C39.1738 45.6787 39.3243 45.7077 39.4412 46.1436ZM32.6158 46.3022C32.5546 46.4012 32.4237 46.4322 32.3247 46.371C32.2257 46.3098 32.1948 46.1789 32.2559 46.0799C32.3171 45.9809 32.448 45.95 32.547 46.0112C32.646 46.0723 32.677 46.2032 32.6158 46.3022ZM34.7356 47.1846C34.5426 47.3778 34.3832 47.0869 34.5416 46.8306C34.6613 46.6368 34.7062 46.6368 34.7704 46.8299C34.8145 46.9619 34.7987 47.1215 34.7356 47.1846ZM31.7709 47.0461C31.7709 47.1506 31.7333 47.2361 31.6871 47.2361C31.6409 47.2361 31.5505 47.1506 31.4859 47.0461C31.4213 46.9416 31.4591 46.8561 31.5697 46.8561C31.6802 46.8561 31.7709 46.9416 31.7709 47.0461ZM35.7609 46.9399C35.7609 46.986 35.6754 47.0765 35.5709 47.1411C35.4664 47.2057 35.3809 47.1679 35.3809 47.0573C35.3809 46.9467 35.4664 46.8561 35.5709 46.8561C35.6754 46.8561 35.7609 46.8937 35.7609 46.9399ZM33.4809 47.4261C33.4809 47.5306 33.3099 47.6161 33.1009 47.6161C32.8919 47.6161 32.7209 47.5306 32.7209 47.4261C32.7209 47.3216 32.8919 47.2361 33.1009 47.2361C33.3099 47.2361 33.4809 47.3216 33.4809 47.4261ZM34.2409 47.4373C34.2409 47.5479 34.3264 47.5857 34.4309 47.5211C34.5354 47.4565 34.6209 47.4943 34.6209 47.6049C34.6209 47.838 34.5698 47.8475 34.1615 47.6908C33.8299 47.5636 33.7503 47.2361 34.0509 47.2361C34.1554 47.2361 34.2409 47.3267 34.2409 47.4373ZM35.4759 47.8061C35.5405 47.9106 35.5027 47.9961 35.3921 47.9961C35.2815 47.9961 35.1909 47.9106 35.1909 47.8061C35.1909 47.7016 35.2285 47.6161 35.2747 47.6161C35.3208 47.6161 35.4113 47.7016 35.4759 47.8061ZM32.1509 47.8899C32.1509 47.936 32.0654 48.0265 31.9609 48.0911C31.8564 48.1557 31.7709 48.1179 31.7709 48.0073C31.7709 47.8967 31.8564 47.8061 31.9609 47.8061C32.0654 47.8061 32.1509 47.8437 32.1509 47.8899ZM32.7209 47.9961C32.7209 48.1006 32.6354 48.1861 32.5309 48.1861C32.4264 48.1861 32.3409 48.1006 32.3409 47.9961C32.3409 47.8916 32.4264 47.8061 32.5309 47.8061C32.6354 47.8061 32.7209 47.8916 32.7209 47.9961ZM36.2277 47.983C36.2879 48.0803 36.2501 48.2134 36.1439 48.2792C36.0377 48.3447 35.9509 48.2651 35.9509 48.1023C35.9509 47.7685 36.0649 47.7194 36.2277 47.983ZM31.2959 48.1861C31.3605 48.2906 31.3227 48.3761 31.2121 48.3761C31.1015 48.3761 31.0109 48.2906 31.0109 48.1861C31.0109 48.0816 31.0485 47.9961 31.0947 47.9961C31.1408 47.9961 31.2313 48.0816 31.2959 48.1861ZM35.0009 48.1861C35.0009 48.2906 34.9154 48.3761 34.8109 48.3761C34.7064 48.3761 34.6209 48.2906 34.6209 48.1861C34.6209 48.0816 34.7064 47.9961 34.8109 47.9961C34.9154 47.9961 35.0009 48.0816 35.0009 48.1861ZM32.5309 48.5661C32.5309 48.6706 32.4454 48.7561 32.3409 48.7561C32.2364 48.7561 32.1509 48.6706 32.1509 48.5661C32.1509 48.4616 32.2364 48.3761 32.3409 48.3761C32.4454 48.3761 32.5309 48.4616 32.5309 48.5661ZM35.7609 48.6499C35.7609 48.696 35.6754 48.7865 35.5709 48.8511C35.4664 48.9157 35.3809 48.8779 35.3809 48.7673C35.3809 48.6567 35.4664 48.5661 35.5709 48.5661C35.6754 48.5661 35.7609 48.6037 35.7609 48.6499ZM35.1909 48.8399C35.1909 48.886 35.1054 48.9765 35.0009 49.0411C34.8964 49.1057 34.8109 49.0679 34.8109 48.9573C34.8109 48.8467 34.8964 48.7561 35.0009 48.7561C35.1054 48.7561 35.1909 48.7937 35.1909 48.8399ZM32.6211 49.3337C32.563 49.4279 32.7327 49.5594 32.9981 49.6261C33.2637 49.6928 33.4809 49.8235 33.4809 49.9166C33.4809 50.1663 33.2394 50.1239 32.7632 49.7903C32.3565 49.5054 32.14 48.7996 32.5339 49.043C32.6401 49.1087 32.6795 49.2394 32.6211 49.3337ZM35.3809 49.5636C35.3809 49.6421 35.215 49.7061 35.0121 49.7061C34.8092 49.7061 34.6036 49.6421 34.5553 49.5636C34.5069 49.4851 34.6727 49.4211 34.9239 49.4211C35.1753 49.4211 35.3809 49.4851 35.3809 49.5636ZM34.2409 49.8961C34.2409 50.0006 34.1502 50.0861 34.0397 50.0861C33.9291 50.0861 33.8913 50.0006 33.9559 49.8961C34.0205 49.7916 34.1109 49.7061 34.1571 49.7061C34.2033 49.7061 34.2409 49.7916 34.2409 49.8961ZM35.0009 50.2761C35.0009 50.3806 34.9154 50.4661 34.8109 50.4661C34.7064 50.4661 34.6209 50.3806 34.6209 50.2761C34.6209 50.1716 34.7064 50.0861 34.8109 50.0861C34.9154 50.0861 35.0009 50.1716 35.0009 50.2761ZM35.5709 50.3823C35.5709 50.5451 35.4854 50.6257 35.3809 50.5611C35.2764 50.4965 35.1909 50.3633 35.1909 50.2649C35.1909 50.1665 35.2764 50.0861 35.3809 50.0861C35.4854 50.0861 35.5709 50.2195 35.5709 50.3823ZM32.0559 50.4661C32.1205 50.5706 32.0827 50.6561 31.9721 50.6561C31.8615 50.6561 31.7709 50.5706 31.7709 50.4661C31.7709 50.3616 31.8085 50.2761 31.8547 50.2761C31.9008 50.2761 31.9913 50.3616 32.0559 50.4661ZM33.1009 50.4661C33.1009 50.5706 33.0154 50.6561 32.9109 50.6561C32.8064 50.6561 32.7209 50.5706 32.7209 50.4661C32.7209 50.3616 32.8064 50.2761 32.9109 50.2761C33.0154 50.2761 33.1009 50.3616 33.1009 50.4661ZM33.7659 50.4661C33.8305 50.5706 33.7927 50.6561 33.6821 50.6561C33.5715 50.6561 33.4809 50.5706 33.4809 50.4661C33.4809 50.3616 33.5185 50.2761 33.5647 50.2761C33.6108 50.2761 33.7013 50.3616 33.7659 50.4661ZM31.5797 51.4442C32.0012 51.8656 32.1475 52.1605 32.0749 52.4417C31.9808 52.8059 31.2062 53.3161 30.7473 53.3161C30.4616 53.3161 29.3037 52.486 29.3022 52.2802C29.3003 52.0131 30.4772 50.8461 30.7485 50.8461C30.8767 50.8461 31.2508 51.1153 31.5797 51.4442ZM33.2909 51.1423C33.2909 51.3051 33.204 51.3847 33.0978 51.3192C32.9916 51.2534 32.9538 51.1203 33.014 51.023C33.1769 50.7594 33.2909 50.8085 33.2909 51.1423ZM36.9964 51.8436C37.4581 52.1833 37.8387 52.5466 37.8421 52.6511C37.8456 52.7556 37.555 53.0408 37.1967 53.2847C36.4388 53.8008 36.2376 53.7322 35.3942 52.6691C34.8396 51.9699 34.8238 51.9067 35.1227 51.5766C35.577 51.0745 36.0406 51.1406 36.9964 51.8436ZM34.798 52.5378C35.014 52.8415 35.1909 53.1291 35.1909 53.177C35.1909 53.3767 33.4471 53.4839 32.9949 53.3119C32.2941 53.0455 32.4203 52.3173 33.1959 52.1523C34.2179 51.935 34.3997 51.9787 34.798 52.5378ZM34.4784 53.7652C35.2882 53.7512 35.9509 53.7981 35.9509 53.8696C35.9509 54.1395 34.5924 54.4804 33.9986 54.3596C32.5892 54.0729 31.9609 53.8597 31.9609 53.6682C31.9609 53.5334 32.1374 53.52 32.4834 53.6281C32.7707 53.7177 33.6686 53.7795 34.4784 53.7652ZM33.7246 59.0636C33.6828 59.1421 33.5681 59.2061 33.4697 59.2061C33.258 59.2061 33.2282 58.3821 33.4324 58.1778C33.5856 58.0249 33.8506 58.8284 33.7246 59.0636ZM34.976 58.7011C35.2085 58.9811 35.0786 59.2061 34.6841 59.2061C34.5449 59.2061 34.4309 59.0351 34.4309 58.8261C34.4309 58.3878 34.6703 58.3328 34.976 58.7011ZM32.365 61.158C32.2229 61.3001 32.1252 61.2606 32.0344 61.0236C31.9569 60.8215 32.011 60.6218 32.1706 60.5218C32.4991 60.3166 32.6646 60.8583 32.365 61.158ZM33.6709 60.6199C33.6709 60.7705 33.5854 60.9465 33.4809 61.0111C33.3764 61.0757 33.2909 60.9524 33.2909 60.7373C33.2909 60.5222 33.3764 60.3461 33.4809 60.3461C33.5854 60.3461 33.6709 60.4692 33.6709 60.6199ZM33.6709 62.3411C33.6709 62.4978 33.5426 62.6261 33.3859 62.6261C33.2291 62.6261 33.1009 62.4978 33.1009 62.3411C33.1009 62.1843 33.2291 62.0561 33.3859 62.0561C33.5426 62.0561 33.6709 62.1843 33.6709 62.3411ZM35.0009 62.2461C35.0009 62.3506 34.8726 62.4361 34.7159 62.4361C34.5591 62.4361 34.4309 62.3506 34.4309 62.2461C34.4309 62.1416 34.5591 62.0561 34.7159 62.0561C34.8726 62.0561 35.0009 62.1416 35.0009 62.2461ZM36.6902 65.2386C37.6405 66.2576 38.4186 67.2345 38.4194 67.4097C38.4254 68.7162 33.6483 69.8985 31.7709 69.0553L31.1059 68.7566L32.005 68.8507C32.989 68.9537 33.3093 68.6647 32.9409 68.0065C32.7746 67.7095 32.8546 67.6385 33.5426 67.4726C34.5886 67.2201 34.6315 66.8177 33.7746 65.3017C32.8221 63.6164 32.8704 63.4313 34.2692 63.4011C34.9083 63.3872 35.098 63.5312 36.6902 65.2386ZM38.7942 63.8531C38.9781 64.0746 38.9379 64.2836 38.5924 64.8981C38.3551 65.3205 38.0979 65.6661 38.0207 65.6661C37.8492 65.6661 36.5209 64.1337 36.5209 63.9358C36.5209 63.5464 38.4805 63.4752 38.7942 63.8531Z" fill="white"/>
</svg>
